<?xml version="1.0" encoding="UTF-8" standalone="no"?>
<!-- Created with Inkscape (http://www.inkscape.org/) -->

<svg
   xmlns:dc="http://purl.org/dc/elements/1.1/"
   xmlns:cc="http://creativecommons.org/ns#"
   xmlns:rdf="http://www.w3.org/1999/02/22-rdf-syntax-ns#"
   xmlns:svg="http://www.w3.org/2000/svg"
   xmlns="http://www.w3.org/2000/svg"
   xmlns:sodipodi="http://sodipodi.sourceforge.net/DTD/sodipodi-0.dtd"
   xmlns:inkscape="http://www.inkscape.org/namespaces/inkscape"
   width="50"
   height="24"
   viewBox="0 0 13.229166 6.3500002"
   version="1.1"
   id="svg3729"
   inkscape:version="0.92.4 (5da689c313, 2019-01-14)"
   sodipodi:docname="Eli-logo-or.svg">
  <defs
     id="defs3723" />
  <sodipodi:namedview
     id="base"
     pagecolor="#ffffff"
     bordercolor="#666666"
     borderopacity="1.0"
     inkscape:pageopacity="0.0"
     inkscape:pageshadow="2"
     inkscape:zoom="15.839192"
     inkscape:cx="24.965024"
     inkscape:cy="15.118797"
     inkscape:document-units="mm"
     inkscape:current-layer="layer1"
     showgrid="false"
     inkscape:window-width="1920"
     inkscape:window-height="1027"
     inkscape:window-x="1912"
     inkscape:window-y="340"
     inkscape:window-maximized="1"
     inkscape:snap-bbox="true"
     inkscape:snap-grids="false"
     units="px" />
  <metadata
     id="metadata3726">
    <rdf:RDF>
      <cc:Work
         rdf:about="">
        <dc:format>image/svg+xml</dc:format>
        <dc:type
           rdf:resource="http://purl.org/dc/dcmitype/StillImage" />
        <dc:title />
      </cc:Work>
    </rdf:RDF>
  </metadata>
  <g
     inkscape:label="Layer 1"
     inkscape:groupmode="layer"
     id="layer1"
     transform="translate(0,-290.64997)">
    <path
       id="path0"
       d="m 12.350507,290.67252 a 0.68640931,0.68072759 0 0 0 -0.519208,0.67626 c -0.0016,0.82854 1.164939,0.96045 1.381545,0.15633 0.128991,-0.4791 -0.37107,-0.96205 -0.862337,-0.83259 m -9.4083251,5.6e-4 c -0.017295,0.002 -0.076423,0.009 -0.1313148,0.0147 -1.1186317,0.12367 -2.20510807,0.95298 -2.57927759,1.9687 a 3.1264908,3.1006115 0 0 0 -0.1368036,0.43758 3.2073483,3.1807997 0 0 0 -0.037109,1.32844 3.1350761,3.1091259 0 0 0 0.53679912,1.25621 4.2321065,4.1970757 0 0 0 0.38704766,0.44889 0.86262098,0.85548069 0 0 1 0.081211,0.0713 3.2188894,3.1922453 0 0 0 0.94397,0.58805 c 0.040482,0.0155 0.083037,0.0324 0.094581,0.0378 a 3.2728648,3.2457739 0 0 0 0.6614954,0.16121 7.1623298,7.1030441 0 0 0 0.8707168,0.004 3.6563222,3.6260573 0 0 0 0.6743738,-0.16484 c 0.011782,-0.005 0.049263,-0.0196 0.084097,-0.0327 a 3.4819402,3.4531188 0 0 0 0.8655763,-0.5093 c 0.077409,-0.0649 0.073467,-0.0661 0.1258961,0.0408 0.2224417,0.45308 0.7520653,0.66398 1.4778126,0.5884 0.585426,-0.061 1.139253,-0.35593 1.579854,-0.84166 0.199293,-0.21977 0.185708,-0.21475 0.195422,-0.0723 a 1.4414313,1.4295 0 0 0 0.05834,0.3158 0.09148371,0.09072645 0 0 1 0.01014,0.0349 c 0,0.11766 0.217168,0.37386 0.3949945,0.46598 0.307953,0.15961 0.8146295,0.13393 1.2062508,-0.0611 0.191481,-0.0955 0.283807,-0.16428 0.517163,-0.38677 0.0078,-0.008 0.04583,-0.0535 0.08395,-0.10204 0.08282,-0.10517 0.08445,-0.1051 0.115411,0.006 a 0.8607209,0.85359637 0 0 0 0.497881,0.58289 c 0.177762,0.078 0.538347,0.0838 0.749955,0.0124 a 0.8738805,0.86664703 0 0 0 0.599713,-0.72002 c 0.01831,-0.11348 0.01408,-0.11864 -0.08599,-0.0926 -0.378604,0.0977 -0.592746,-0.0824 -0.527155,-0.444 0.01564,-0.087 0.03904,-0.20302 0.06199,-0.30707 0.01071,-0.0489 0.02709,-0.12604 0.03657,-0.1719 0.0094,-0.0459 0.02372,-0.11382 0.03165,-0.15116 0.01761,-0.0824 0.0422,-0.19764 0.0639,-0.30233 0.009,-0.0429 0.02281,-0.10629 0.03063,-0.14063 0.0078,-0.0343 0.02168,-0.0977 0.03073,-0.14062 0.0091,-0.0429 0.02598,-0.12269 0.03753,-0.17713 0.01151,-0.0544 0.02817,-0.13176 0.03647,-0.17189 l 0.03084,-0.14586 c 0.0085,-0.0401 0.02308,-0.11048 0.0325,-0.15633 0.0094,-0.0458 0.02377,-0.11166 0.03197,-0.14586 0.0082,-0.0342 0.01955,-0.086 0.02495,-0.11459 0.01205,-0.0618 0.03341,-0.16108 0.06389,-0.29696 0.01227,-0.0543 0.02694,-0.1268 0.03267,-0.16051 a 0.48148578,0.4775003 0 0 1 0.01494,-0.0689 c 0.0027,-0.004 0.01922,-0.0793 0.03727,-0.1675 l 0.04128,-0.20183 c 0.0173,-0.0842 0.06454,-0.0783 -0.619272,-0.0783 -0.668531,0 -0.641298,-0.003 -0.641298,0.0628 a 0.2009123,0.19924926 0 0 1 -0.01114,0.059 0.91117767,0.90363549 0 0 0 -0.02596,0.10748 c -0.01371,0.0727 -0.02522,0.12701 -0.06397,0.30233 -0.0082,0.0373 -0.02239,0.10294 -0.03127,0.14586 -0.0089,0.0429 -0.02276,0.10852 -0.03047,0.14586 -0.0078,0.0373 -0.02399,0.11243 -0.03604,0.16665 -0.01205,0.0542 -0.02886,0.13414 -0.03743,0.17713 -0.0086,0.043 -0.02276,0.11096 -0.03154,0.15116 -0.0088,0.0402 -0.02281,0.10574 -0.03127,0.14586 -0.0085,0.0401 -0.0204,0.0964 -0.02683,0.12507 -0.0065,0.0287 -0.0188,0.0872 -0.02757,0.13022 -0.0088,0.043 -0.02265,0.10204 -0.03089,0.13114 a 0.40696174,0.40359315 0 0 0 -0.01564,0.0792 0.19239727,0.19080472 0 0 1 -0.01114,0.0558 0.91596304,0.90838122 0 0 0 -0.02603,0.10747 c -0.01687,0.0887 -0.0651,0.31873 -0.09943,0.47457 -0.0127,0.0573 -0.02672,0.12528 -0.03122,0.15117 a 0.65614926,0.65071803 0 0 1 -0.03127,0.10419 c -0.01258,0.0315 -0.02671,0.0692 -0.03122,0.0838 -0.110908,0.35154 -0.460724,0.65442 -0.756993,0.65533 -0.3271603,10e-4 -0.4112553,-0.18145 -0.2993633,-0.65065 0.0082,-0.0344 0.02458,-0.11166 0.03647,-0.17196 0.01189,-0.0603 0.02817,-0.13749 0.0363,-0.17189 0.0082,-0.0344 0.02276,-0.10001 0.0324,-0.14586 0.0096,-0.0458 0.02345,-0.11167 0.03122,-0.14586 0.0078,-0.0342 0.02158,-0.10001 0.03122,-0.14586 0.0096,-0.0459 0.02442,-0.11167 0.03261,-0.14586 0.0082,-0.0342 0.01955,-0.0883 0.02506,-0.11983 0.0055,-0.0315 0.01697,-0.0878 0.02528,-0.12506 0.02425,-0.10853 0.05018,-0.22926 0.06475,-0.30233 0.0076,-0.0373 0.02394,-0.11243 0.03652,-0.16666 0.01258,-0.0542 0.0294,-0.13176 0.03743,-0.17189 0.008,-0.0401 0.0211,-0.10343 0.02935,-0.14063 0.0082,-0.0372 0.02736,-0.12869 0.043,-0.20316 0.02656,-0.12827 0.0422,-0.1998 0.07424,-0.34385 0.0078,-0.0344 0.02179,-0.10001 0.03154,-0.14586 0.01703,-0.0809 0.02709,-0.12646 0.0629,-0.28321 0.0093,-0.0412 0.0211,-0.0977 0.02618,-0.12506 0.0053,-0.0274 0.02651,-0.12995 0.04787,-0.22737 0.02131,-0.0974 0.0422,-0.19821 0.04643,-0.22403 0.0043,-0.0258 0.0128,-0.0657 0.01922,-0.0886 0.0065,-0.0229 0.02163,-0.0907 0.0339,-0.15117 0.01232,-0.0604 0.02886,-0.13748 0.03668,-0.17189 0.0078,-0.0344 0.02216,-0.10001 0.03186,-0.14586 0.0097,-0.0458 0.02372,-0.11166 0.03122,-0.14586 0.0076,-0.0342 0.02168,-0.10001 0.03122,-0.14586 0.0096,-0.0458 0.02394,-0.11382 0.03186,-0.15116 0.008,-0.0373 0.01703,-0.08 0.02019,-0.0951 0.01092,-0.052 -0.0027,-0.0526 -0.288874,-0.0135 -0.31034,0.0424 -0.600981,0.081 -0.7873223,0.10469 -0.0722,0.009 -0.150245,0.0198 -0.173323,0.0237 l -0.0422,0.007 -0.02244,0.0935 c -0.01232,0.0514 -0.03041,0.131 -0.04011,0.17685 -0.0097,0.0458 -0.02404,0.11166 -0.03197,0.14586 -0.0079,0.0342 -0.02211,0.10001 -0.03181,0.14586 -0.0097,0.0458 -0.02367,0.11166 -0.03122,0.14586 -0.0076,0.0342 -0.0211,0.0977 -0.0302,0.14062 -0.049269,0.23366 -0.088109,0.41309 -0.1064035,0.49495 -0.0078,0.0344 -0.02196,0.10001 -0.03159,0.14586 -0.02485,0.11739 -0.04685,0.21893 -0.06334,0.29172 -0.01649,0.0728 -0.05189,0.23889 -0.07424,0.34895 -0.0087,0.0429 -0.02276,0.1042 -0.03122,0.13616 a 0.47543377,0.47149843 0 0 0 -0.01516,0.0824 0.39795412,0.39466009 0 0 1 -0.01526,0.0775 c -0.01837,0.0639 -0.05559,0.23393 -0.1154805,0.52712 -0.0076,0.0373 -0.0188,0.0888 -0.02485,0.1146 -0.006,0.0258 -0.01853,0.0845 -0.02774,0.13022 -0.0092,0.0458 -0.02201,0.10469 -0.02849,0.1303 -0.0065,0.0256 -0.01526,0.068 -0.01955,0.0937 -0.0043,0.0257 -0.01831,0.0914 -0.03122,0.14586 -0.01296,0.0544 -0.02935,0.12946 -0.03674,0.16666 -0.01655,0.0837 -0.03342,0.16282 -0.05221,0.24489 -0.0078,0.0344 -0.02216,0.10001 -0.03186,0.14586 -0.0097,0.0459 -0.02425,0.10943 -0.0325,0.14132 a 0.49084526,0.48678231 0 0 0 -0.01494,0.0798 0.30830009,0.30574816 0 0 1 -0.07143,0.0983 c -0.03936,0.0419 -0.09487,0.10197 -0.123433,0.13316 -0.416675,0.4544 -0.83546,0.66056 -1.34411,0.66175 -0.519487,10e-4 -0.674726,-0.21461 -0.634544,-0.88214 0.0121,-0.20135 -0.0021,-0.18215 0.152144,-0.20184 1.06607,-0.13455 1.882735,-0.92638 1.884776,-1.82772 0.0011,-0.43374 -0.209495,-0.71639 -0.597319,-0.80195 a 1.966759,1.9504792 0 0 0 -1.5817874,0.3589 c -0.117237,0.0872 -0.113366,0.0867 -0.137435,0.019 a 3.2421122,3.2152758 0 0 0 -0.1888929,-0.44044 3.1974963,3.1710293 0 0 0 -2.5109451,-1.72381 5.1779076,5.1350478 0 0 0 -0.6093508,-0.009 m 0.206892,0.77732 c 0.050442,0.0397 0.079239,1.42036 0.032932,1.57592 -0.057285,0.1922 -0.1529215,0.29549 -0.449961,0.48615 -0.040482,0.026 -0.1922574,0.13351 -0.3374358,0.23896 l -0.4938004,0.359 c -0.5489009,0.3992 -0.5757818,0.41713 -0.7073805,0.47289 -0.095352,0.0403 -0.1078074,0.0365 -0.146442,-0.044 -0.10781239,-0.22451 -0.13997309,-0.39382 -0.14074429,-0.74172 a 2.1195367,2.1019924 0 0 1 0.12117869,-0.78164 c 0.011406,-0.0344 0.024685,-0.0719 0.029558,-0.0833 0.00482,-0.0115 0.026506,-0.0628 0.047978,-0.1146 0.021473,-0.0518 0.042196,-0.0985 0.046373,-0.10419 0.00428,-0.006 0.02763,-0.0479 0.052423,-0.0937 0.3092161,-0.57046 0.9324304,-1.0137 1.6024453,-1.13981 0.2411625,-0.0454 0.3150529,-0.0518 0.3430637,-0.0298 m 1.0388991,1.45001 a 0.710758,0.70487474 0 0 1 0.3100623,0.20107 c 0.047551,0.0576 0.041498,0.074 -0.03518,0.0971 a 0.96409749,0.95611727 0 0 0 -0.323712,0.18606 c -0.1371568,0.11864 -0.2057674,0.19813 -0.5137145,0.5953 -0.051995,0.067 -0.1361021,0.17538 -0.1869082,0.24071 -0.1272344,0.16365 -0.2467956,0.31963 -0.5063304,0.66056 -0.1221635,0.16051 -0.2828975,0.37149 -0.3572806,0.46898 -0.1819121,0.23826 -0.2730395,0.35886 -0.3464373,0.45845 -0.1451784,0.19702 -0.1858531,0.2308 -0.264038,0.21921 -0.132509,-0.0197 -0.5184323,-0.30707 -0.686197,-0.51065 -0.29943313,-0.36367 -0.34764209,-0.4327 -0.34764209,-0.49941 0,-0.0729 0.14180499,-0.19765 0.50949519,-0.44743 0.098523,-0.0668 0.2566485,-0.17789 0.3518616,-0.24691 0.2568573,-0.18606 0.3072456,-0.22179 0.5831016,-0.41546 l 0.3518616,-0.24726 c 0.054892,-0.0387 0.1541851,-0.10783 0.220686,-0.15354 0.0665,-0.0457 0.2106242,-0.15417 0.3204772,-0.24064 0.4671283,-0.36793 0.6605102,-0.44483 0.9203932,-0.36583 m 3.5313437,0.007 c 0.09472,0.0261 0.140745,0.0995 0.154817,0.2458 a 1.6281284,1.6146518 0 0 1 -0.02062,0.38384 1.9835778,1.967159 0 0 1 -0.126668,0.34895 c -0.16784,0.34301 -0.518855,0.64904 -0.859809,0.74975 -0.239261,0.0706 -0.278533,0.052 -0.219984,-0.10364 0.0054,-0.014 0.01617,-0.0543 0.0241,-0.0886 0.01472,-0.0646 0.02292,-0.0934 0.07741,-0.27106 a 1.5217259,1.5091299 0 0 1 0.0753,-0.21635 0.0788871,0.07823412 0 0 0 0.01039,-0.0301 c 0,-0.0155 0.101194,-0.24838 0.157912,-0.36332 0.222801,-0.45133 0.514352,-0.71451 0.726946,-0.65603 M 3.9688198,292.96 a 0.05404576,0.0535984 0 1 0 0.034699,-0.0125 0.05629767,0.05583166 0 0 0 -0.034699,0.0125 m 0.9064654,0.92102 c 0.1155508,0.008 0.2881026,0.0219 0.383455,0.0304 0.095357,0.009 0.2214617,0.0155 0.2802948,0.0155 0.1386293,0 0.1438394,0.005 0.1351113,0.11369 a 2.2818147,2.2629272 0 0 1 -0.5683926,1.2929 c -0.030041,0.0315 -0.065868,0.0698 -0.079593,0.0847 a 2.5458507,2.5247776 0 0 1 -0.4527032,0.34092 2.0675318,2.0504179 0 0 1 -0.2760701,0.13686 2.5491583,2.5280579 0 0 1 -0.5200495,0.15228 c -0.049263,0.009 -0.1176656,0.0209 -0.1524288,0.0274 -0.3175857,0.0581 -0.8546685,-0.007 -1.136297,-0.13742 -0.1130174,-0.0524 -0.1159733,-0.0593 -0.068188,-0.15667 a 1.4120158,1.400328 0 0 1 0.2057672,-0.29172 c 0.043695,-0.0543 0.1090769,-0.13798 0.1451787,-0.18564 0.5609331,-0.7404 0.9031508,-1.18091 0.963183,-1.23947 0.2085092,-0.2035 0.4103354,-0.23609 1.140656,-0.18389"
       inkscape:connector-curvature="0"
       style="fill:#eb7828;fill-rule:evenodd;stroke-width:0.07008023" />
  </g>
</svg>
