<?xml version="1.0" encoding="UTF-8" standalone="no"?>
<svg
   xmlns:dc="http://purl.org/dc/elements/1.1/"
   xmlns:cc="http://creativecommons.org/ns#"
   xmlns:rdf="http://www.w3.org/1999/02/22-rdf-syntax-ns#"
   xmlns:svg="http://www.w3.org/2000/svg"
   xmlns="http://www.w3.org/2000/svg"
   xmlns:sodipodi="http://sodipodi.sourceforge.net/DTD/sodipodi-0.dtd"
   xmlns:inkscape="http://www.inkscape.org/namespaces/inkscape"
   id="Eli_logo_ob"
   width="302"
   height="146"
   viewBox="0 0 302 146"
   version="1.1"
   sodipodi:docname="Eli_logo_w.svg"
   inkscape:version="0.92.4 (5da689c313, 2019-01-14)">
  <metadata
     id="metadata9">
    <rdf:RDF>
      <cc:Work
         rdf:about="">
        <dc:format>image/svg+xml</dc:format>
        <dc:type
           rdf:resource="http://purl.org/dc/dcmitype/StillImage" />
        <dc:title></dc:title>
      </cc:Work>
    </rdf:RDF>
  </metadata>
  <defs
     id="defs7" />
  <sodipodi:namedview
     pagecolor="#ffffff"
     bordercolor="#666666"
     borderopacity="1"
     objecttolerance="10"
     gridtolerance="10"
     guidetolerance="10"
     inkscape:pageopacity="0"
     inkscape:pageshadow="2"
     inkscape:window-width="1884"
     inkscape:window-height="1048"
     id="namedview5"
     showgrid="false"
     inkscape:pagecheckerboard="true"
     inkscape:snap-to-guides="true"
     inkscape:snap-grids="true"
     inkscape:snap-others="false"
     inkscape:snap-nodes="true"
     inkscape:zoom="5.3196907"
     inkscape:cx="194.01434"
     inkscape:cy="75.792209"
     inkscape:window-x="0"
     inkscape:window-y="348"
     inkscape:window-maximized="0"
     inkscape:current-layer="Eli_logo_ob" />
  <path
     id="path0"
     d="M 280.28215,1.0098298 A 15.543024,15.543024 0 0 0 268.52514,16.448377 c -0.0329,18.919086 26.37966,21.930976 31.28505,3.569094 2.92035,-10.9401151 -8.40384,-21.9667963 -19.52903,-19.0116212 m -213.052154,0.009 c -0.392033,0.04577 -1.730319,0.199001 -2.974079,0.335317 C 38.924006,4.1769408 14.321433,23.112942 5.8479451,46.305589 a 70.799811,70.799811 0 0 0 -3.09746,9.991872 72.635602,72.635602 0 0 0 -0.839787,30.333822 70.993838,70.993838 0 0 0 12.1560129,28.690057 c 1.86365,2.65468 8.178968,10.03267 8.772988,10.24858 a 19.533007,19.533007 0 0 1 1.83778,1.62685 72.892314,72.892314 0 0 0 21.376757,13.42663 c 0.916403,0.35422 1.879571,0.74128 2.142252,0.86267 2.487521,1.1582 10.149084,3.04075 14.972884,3.68154 a 162.1933,162.1933 0 0 0 19.717084,0.0995 c 5.07454,-0.74328 12.51024,-2.57509 15.271395,-3.76412 0.26566,-0.11243 1.11839,-0.44776 1.903449,-0.74527 a 78.848433,78.848433 0 0 0 19.59369,-11.63558 c 1.74724,-1.48256 1.66266,-1.50942 2.85169,0.93133 5.03773,10.34809 17.02957,15.16094 33.46412,13.43261 13.25749,-1.39301 25.79858,-8.13022 35.77553,-19.21858 4.51336,-5.01783 4.20589,-4.90341 4.42479,-1.65172 a 32.64224,32.64224 0 0 0 1.32138,7.21083 2.0775772,2.0775772 0 0 1 0.22984,0.80297 c 0,2.68652 4.91833,8.53617 8.94414,10.63962 6.97301,3.64472 18.44744,3.05866 27.31596,-1.39301 4.33624,-2.18006 6.42675,-3.75218 11.71124,-8.83169 0.17712,-0.17711 1.0368,-1.22187 1.90146,-2.33032 1.87559,-2.40095 1.91937,-2.39895 2.61388,0.14429 a 19.491216,19.491216 0 0 0 11.27444,13.30922 c 4.02482,1.78207 12.19184,1.91738 16.98281,0.28159 7.51032,-2.56613 12.27939,-8.33717 13.57987,-16.44152 0.41492,-2.58702 0.31244,-2.70244 -1.94723,-2.11439 -8.57399,2.23579 -13.42266,-1.88156 -11.94011,-10.13813 0.35423,-1.99002 0.88457,-4.63476 1.40396,-7.01979 0.24179,-1.11142 0.61392,-2.87855 0.82885,-3.92531 0.21492,-1.04674 0.53731,-2.59894 0.7164,-3.451665 0.39801,-1.882554 0.94925,-4.513354 1.44575,-6.903369 0.20397,-0.981078 0.51641,-2.426826 0.6965,-3.211886 0.1801,-0.785062 0.49154,-2.230809 0.69652,-3.211887 0.20497,-0.981079 0.58804,-2.800949 0.84873,-4.044709 0.26069,-1.24376 0.63382,-3.008905 0.82486,-3.925307 l 0.69651,-3.330293 c 0.19204,-0.916402 0.52337,-2.522346 0.73631,-3.569094 0.21293,-1.04675 0.5393,-2.545231 0.72336,-3.330293 0.18408,-0.785062 0.44279,-1.963152 0.56617,-2.616872 0.27263,-1.410922 0.75621,-3.68153 1.44574,-6.779986 0.27662,-1.238785 0.60995,-2.895474 0.74029,-3.670585 a 10.903301,10.903301 0 0 1 0.33731,-1.574103 c 0.0557,-0.08855 0.43581,-1.810916 0.84476,-3.823817 0.40894,-2.012901 0.82884,-4.087494 0.93531,-4.608878 0.39203,-1.924347 1.46167,-1.791015 -14.02961,-1.791015 -15.14005,0 -14.52215,-0.06069 -14.52215,1.429827 a 4.5501727,4.5501727 0 0 1 -0.25273,1.346246 20.636471,20.636471 0 0 0 -0.58905,2.454685 c -0.31044,1.661664 -0.57114,2.90045 -1.44873,6.903368 -0.18707,0.850732 -0.50646,2.350209 -0.70845,3.331287 -0.20198,0.981079 -0.51442,2.478566 -0.69054,3.330293 -0.17611,0.851727 -0.54327,2.566126 -0.8159,3.805906 -0.27263,1.23978 -0.65372,3.06363 -0.84775,4.044709 -0.19402,0.981078 -0.51541,2.534286 -0.71441,3.451683 -0.199,0.917398 -0.51641,2.41389 -0.70845,3.330293 -0.19204,0.916402 -0.46267,2.200958 -0.60696,2.854678 -0.14427,0.653721 -0.42487,1.990017 -0.62386,2.97408 -0.199,0.984064 -0.51343,2.329315 -0.69651,2.994975 a 9.2157663,9.2157663 0 0 0 -0.33731,1.828825 4.356146,4.356146 0 0 1 -0.25273,1.282566 20.745922,20.745922 0 0 0 -0.59004,2.454685 c -0.38208,2.024842 -1.4746,7.278484 -2.2517,10.830653 -0.28656,1.30843 -0.60497,2.86065 -0.70844,3.45168 a 14.862438,14.862438 0 0 1 -0.70846,2.37907 c -0.28556,0.71939 -0.60595,1.58206 -0.70844,1.91539 -2.5114,8.02772 -10.43366,14.94303 -17.142,14.96393 -7.40784,0.0239 -9.31229,-4.15117 -6.77899,-14.85747 0.18607,-0.78506 0.5572,-2.55119 0.82486,-3.9263 0.26765,-1.3751 0.6378,-3.14025 0.82287,-3.92531 0.18507,-0.78506 0.51442,-2.288505 0.73233,-3.331269 0.21791,-1.04277 0.53133,-2.54523 0.70844,-3.33029 0.17711,-0.785066 0.48955,-2.288524 0.70845,-3.330297 0.2189,-1.041774 0.55322,-2.546226 0.7383,-3.331288 0.18507,-0.785061 0.44277,-2.015887 0.56714,-2.735277 0.12439,-0.719391 0.38408,-2.004942 0.57313,-2.855673 0.54925,-2.478566 1.13531,-5.233744 1.46664,-6.903368 0.17015,-0.850732 0.54129,-2.567121 0.82686,-3.805906 0.28556,-1.238785 0.66665,-3.008905 0.84775,-3.925308 0.18109,-0.916403 0.48058,-2.361155 0.66367,-3.211886 0.18308,-0.850733 0.61989,-2.93826 0.97312,-4.639724 0.597,-2.929305 0.95023,-4.562113 1.68156,-7.85161 0.17711,-0.785061 0.4975,-2.288519 0.71342,-3.331287 0.38506,-1.845741 0.61392,-2.885525 1.42485,-6.467554 0.21194,-0.940283 0.4796,-2.224839 0.597,-2.854679 0.11741,-0.62984 0.59701,-2.967114 1.08456,-5.191953 0.48756,-2.224839 0.95621,-4.526293 1.05272,-5.114342 0.0965,-0.58805 0.29055,-1.499477 0.43482,-2.021857 0.14428,-0.52238 0.48855,-2.076582 0.76716,-3.451683 0.27859,-1.375102 0.65272,-3.140247 0.83083,-3.925308 0.1781,-0.785062 0.50247,-2.28852 0.72137,-3.331288 0.2189,-1.042769 0.53731,-2.545231 0.70845,-3.330293 0.17115,-0.785061 0.49054,-2.288518 0.70844,-3.331286 0.21792,-1.0427681 0.54229,-2.5989613 0.72238,-3.4516833 0.18009,-0.852722 0.38606,-1.828826 0.45771,-2.173098 0.24676,-1.1880399 -0.0597,-1.2019699 -6.54218,-0.3084529 -7.02774,0.9681429 -13.60973,1.8497199 -17.82856,2.3880199 -1.6358,0.207957 -3.40193,0.451734 -3.92531,0.540289 l -0.95123,0.161192 -0.50845,2.1342922 c -0.27859,1.1741091 -0.68754,2.9909941 -0.90844,4.0387371 -0.22089,1.047744 -0.54526,2.545231 -0.72336,3.330293 -0.17811,0.785062 -0.49751,2.288519 -0.71939,3.331288 -0.2219,1.042769 -0.53533,2.545231 -0.70846,3.330293 -0.17312,0.785061 -0.4766,2.230808 -0.68357,3.211886 -1.12237,5.336229 -1.99598,9.432678 -2.4099,11.301304 -0.17712,0.785061 -0.49751,2.283543 -0.71642,3.330293 -0.56317,2.680551 -1.06166,4.998921 -1.43479,6.666554 -0.37811,1.681564 -1.17412,5.455631 -1.68157,7.971011 -0.19899,0.981079 -0.51542,2.38006 -0.70844,3.108406 a 10.766984,10.766984 0 0 0 -0.34229,1.882556 9.0107946,9.0107946 0 0 1 -0.34527,1.77012 c -0.41591,1.460671 -1.25967,5.342198 -2.61488,12.039599 -0.17213,0.850732 -0.42487,2.028822 -0.56217,2.616872 -0.13732,0.58805 -0.4199,1.927331 -0.62885,2.97408 -0.20895,1.046748 -0.4975,2.388019 -0.64576,2.975074 -0.14825,0.587055 -0.34626,1.552213 -0.44278,2.141258 -0.0966,0.589044 -0.41492,2.089517 -0.70844,3.330293 -0.29353,1.240775 -0.66467,2.956169 -0.83183,3.805906 -0.37412,1.905445 -0.75721,3.717355 -1.18207,5.591945 -0.17711,0.78506 -0.50248,2.283529 -0.72238,3.330279 -0.2199,1.04675 -0.55024,2.49946 -0.73531,3.22781 a 11.115237,11.115237 0 0 0 -0.33731,1.82186 6.9819728,6.9819728 0 0 1 -1.61788,2.24573 c -0.89053,0.95919 -2.14823,2.32733 -2.79597,3.03975 -9.43567,10.37496 -18.91909,15.08333 -30.44029,15.1102 -11.76299,0.0279 -15.27835,-4.89942 -14.36991,-20.14295 0.27462,-4.59693 -0.0497,-4.16013 3.44472,-4.60888 24.14089,-3.071575 42.63511,-21.152865 42.68585,-41.735605 0.0229,-9.903317 -4.74519,-16.357936 -13.52614,-18.308152 -12.02567,-2.676572 -25.43838,0.387059 -35.8203,8.180958 -2.65468,1.990016 -2.56712,1.979072 -3.11139,0.433823 A 73.416683,73.416683 0 0 0 137.89249,40.589267 72.40874,72.40874 0 0 0 81.028776,1.2257458 117.25476,117.25476 0 0 0 67.229006,1.0267448 M 71.9145,18.775701 c 1.14227,0.907447 1.791016,32.437268 0.745261,35.985468 -1.293511,4.387986 -3.462628,6.747151 -10.188884,11.101307 -0.916402,0.597005 -4.354156,3.048705 -7.640669,5.45762 l -11.183892,8.196878 c -12.437604,9.116265 -13.034608,9.525214 -16.019632,10.797829 -2.159168,0.919388 -2.440756,0.833817 -3.316363,-1.004958 -2.44175,-5.127277 -3.170096,-8.992885 -3.192982,-16.93703 a 47.997208,47.997208 0 0 1 2.743238,-17.843483 c 0.257707,-0.785062 0.559195,-1.641764 0.669641,-1.902456 0.110445,-0.260692 0.597004,-1.439776 1.086549,-2.616872 0.489544,-1.177095 0.960182,-2.248718 1.050728,-2.38006 0.09055,-0.13134 0.62586,-1.094508 1.18804,-2.141257 C 34.853428,32.457064 48.9716,22.33385 64.143486,19.455291 69.60409,18.419488 71.27869,18.273222 71.91251,18.775701 M 95.444456,51.88261 a 16.092269,16.092269 0 0 1 7.020774,4.590968 c 1.0766,1.314406 0.94128,1.691514 -0.80297,2.216878 a 21.824511,21.824511 0 0 0 -7.334204,4.248686 c -3.10642,2.709407 -4.65962,4.523307 -11.63662,13.593802 -1.1771,1.530322 -3.08453,4.003913 -4.23277,5.496426 -2.88552,3.73725 -5.588958,7.29938 -11.465477,15.084321 -2.766123,3.663609 -6.406857,8.482439 -8.091406,10.709259 -4.12033,5.4417 -6.182982,8.1939 -7.844646,10.46849 -3.283527,4.49843 -4.208885,5.27354 -5.979004,5.00489 -3.000945,-0.44975 -11.741098,-7.00586 -15.540039,-11.65951 -6.780981,-8.30334 -7.87151,-9.88341 -7.87151,-11.4028 0,-1.664629 3.211886,-4.513339 11.542095,-10.21573 2.224839,-1.525347 5.810849,-4.061623 7.971011,-5.637716 5.816819,-4.248685 6.957098,-5.064592 13.20376,-9.486408 3.140246,-2.222849 6.726255,-4.7641 7.970015,-5.646672 1.243762,-0.882572 3.491485,-2.462645 4.996933,-3.509394 1.505447,-1.046749 4.769074,-3.519345 7.257588,-5.495431 10.57793,-8.400855 14.95697,-10.158039 20.84244,-8.353094 m 79.967814,0.152236 c 2.14424,0.597005 3.19199,2.271604 3.5084,5.612842 a 36.869036,36.869036 0 0 1 -0.46766,8.770997 c -1.60594,5.200908 -1.85867,5.905374 -2.86164,7.970017 -3.80093,7.832704 -11.74906,14.825622 -19.47132,17.120111 -5.41185,1.611914 -6.30735,1.187045 -4.98101,-2.36613 0.12238,-0.325367 0.36617,-1.238785 0.54428,-2.022852 0.33332,-1.475596 0.51939,-2.132302 1.74922,-6.18895 a 34.46211,34.46211 0 0 1 1.70544,-4.934247 1.7910149,1.7910149 0 0 0 0.23681,-0.688545 c 0,-0.354223 2.28852,-5.671547 3.57606,-8.295383 5.04469,-10.306296 11.64757,-16.318136 16.46142,-14.978855 m -84.943854,1.21192 a 1.2238601,1.2238601 0 1 0 0.78506,-0.284572 1.2696305,1.2696305 0 0 0 -0.78506,0.284572 m 20.532984,21.021539 c 2.61688,0.188057 6.52428,0.497504 8.68345,0.696506 2.15916,0.199002 5.01583,0.354223 6.34714,0.354223 3.14025,0.006 3.25766,0.106466 3.05966,2.596972 -0.83879,10.511266 -5.93025,22.188684 -12.87043,29.526854 -0.68059,0.71939 -1.49251,1.59201 -1.80197,1.9343 a 57.649782,57.649782 0 0 1 -10.24858,7.78395 46.816133,46.816133 0 0 1 -6.251634,3.12532 57.725403,57.725403 0 0 1 -11.77691,3.47756 c -1.11242,0.19899 -2.66463,0.48058 -3.45169,0.62585 -7.19192,1.32735 -19.353902,-0.15323 -25.731905,-3.13825 -2.558166,-1.19402 -2.625827,-1.35521 -1.544253,-3.58203 0.884563,-1.82187 1.492513,-2.68652 4.659624,-6.66656 0.995008,-1.23878 2.470605,-3.1502 3.283527,-4.23874 12.703267,-16.915121 20.452397,-26.969679 21.811577,-28.30697 4.72131,-4.647684 9.29338,-5.390954 25.830404,-4.198935"
     inkscape:connector-curvature="0"
     style="fill:#ffffff;fill-rule:evenodd;stroke-width:0.99500823" />
</svg>
