<svg xmlns="http://www.w3.org/2000/svg" width="145" height="92.971" viewBox="0 0 145 92.971">
  <path id="Icon_simple-iata" data-name="Icon simple-iata" d="M20.65,99.483,26.57,69.971h9.618L30.31,99.477Zm29.041-9.666H55.8L54.234,78.99Zm-13.5,9.666L50.76,69.971h9.485l5.981,29.506H57.315l-.532-3.5h-9.5l-1.51,3.5Zm38.9,0,3.3-22.2H69.972l1.438-7.449H97.273l-1.432,7.449H87.818l-3.238,22.2Zm32.346-9.666h6.114L111.978,78.99ZM93.962,99.483,108.5,69.971h9.485l5.981,29.506h-8.984l-.435-3.5h-9.485l-1.51,3.5Zm51.032-62.867H99.714C98.046,44.9,92.295,51.822,80.834,56.6A11.661,11.661,0,0,0,91.2,64.183h24.558c3.746,0,6.718-3.142,7.92-5.679H98.717c-1.535-.266-1.6-1.51-.06-1.637h24.528c3.172,0,6.041-2.707,7.715-5.649H102.323c-1.432-.236-1.432-1.438,0-1.673h28.812c2.9,0,5.546-3.371,6.646-5.643H106.172c-1.571-.2-1.571-1.673,0-1.7h32.177c2.507,0,4.948-2.743,6.652-5.582ZM0,36.616H45.28C46.912,44.9,52.7,51.822,64.13,56.6a11.668,11.668,0,0,1-10.361,7.582H29.24c-3.746,0-6.718-3.142-7.92-5.679H46.277c1.5-.266,1.6-1.51.06-1.637H21.791c-3.172,0-6.041-2.707-7.685-5.649H42.713c1.438-.236,1.438-1.438,0-1.673H13.9c-2.906,0-5.546-3.371-6.646-5.643H38.858c1.571-.2,1.571-1.673,0-1.7H6.682C4.144,42.2,1.7,39.455,0,36.616ZM57.81,11.761a20.09,20.09,0,0,0,5.546,3.5,31.587,31.587,0,0,1,6.821-8.754,24.468,24.468,0,0,0-12.367,5.25ZM49.793,28.236H59.883A32.37,32.37,0,0,1,62.625,16.7,24.292,24.292,0,0,1,56.572,12.9a23.139,23.139,0,0,0-6.778,15.339ZM71.712,18.77V28.23H61.622a27.911,27.911,0,0,1,2.5-10.965,24.666,24.666,0,0,0,7.588,1.51Zm15.472-7.014a20.214,20.214,0,0,1-5.546,3.5,31.675,31.675,0,0,0-6.851-8.718A24.123,24.123,0,0,1,87.184,11.755ZM95.17,28.23H85.111A30.787,30.787,0,0,0,82.441,16.7a25.942,25.942,0,0,0,5.945-3.806A22.492,22.492,0,0,1,95.17,28.23ZM73.343,18.77V28.23H83.372a26.681,26.681,0,0,0-2.507-10.965,24.268,24.268,0,0,1-7.522,1.51ZM57.81,46.379a21.859,21.859,0,0,1,5.546-3.444,31.445,31.445,0,0,0,6.821,8.657A24.468,24.468,0,0,1,57.81,46.379ZM49.793,29.874H59.883A32.772,32.772,0,0,0,62.625,41.5a25.386,25.386,0,0,0-6.054,3.776,23.344,23.344,0,0,1-6.778-15.406Zm21.918,9.485V29.874H61.622a27.156,27.156,0,0,0,2.5,10.959A24.623,24.623,0,0,1,71.712,39.359Zm15.472,7.02a20.6,20.6,0,0,0-5.546-3.444,30.89,30.89,0,0,1-6.851,8.657,24.7,24.7,0,0,0,12.4-5.214ZM95.17,29.874H85.111A30.66,30.66,0,0,1,82.441,41.5a26.917,26.917,0,0,1,5.945,3.776A22.994,22.994,0,0,0,95.17,29.868ZM73.349,39.359V29.874H83.378A26.436,26.436,0,0,1,80.87,40.833a24.226,24.226,0,0,0-7.522-1.474ZM71.712,7.484a26.5,26.5,0,0,0-6.785,8.349,21.43,21.43,0,0,0,6.785,1.341Zm1.637,0a26.127,26.127,0,0,1,6.718,8.349,19.7,19.7,0,0,1-6.718,1.341ZM71.712,50.656a25.555,25.555,0,0,1-6.785-8.385,20.322,20.322,0,0,1,6.785-1.208Zm1.637.066a27.164,27.164,0,0,0,6.718-8.458,22.444,22.444,0,0,0-6.718-1.2Z" transform="translate(0 -6.512)" fill="#fff"/>
</svg>
